<svg xmlns="http://www.w3.org/2000/svg" width="157.47" height="56.34" viewBox="0 0 157.47 56.34">
  <g id="Animated_Logo" data-name="Animated Logo" transform="translate(-60.15 -29.66)">
    <path id="Path_23873" data-name="Path 23873" d="M13.71-4.02,14.97,0H21.3L14.52-20.67H6.69L.15,0H6.03l1.2-4.02ZM8.25-8.52c.81-2.97,1.62-5.91,2.1-8.13h.09c.45,2.01,1.26,4.89,2.22,8.13ZM29.01,0V-4.65c0-3.63-.03-7.62-.21-9.57h.06C29.85-11.49,33.6-3.75,35.34,0h6.9V-20.67H36.72v4.41c0,3.3.06,6.93.3,9.09H36.9c-.87-2.55-4.02-8.85-6.18-13.5H23.46V0ZM65.58-11.85H55.95v4.23h3.78v.15a3.29,3.29,0,0,1-3.57,3.6c-3.36,0-4.35-3.18-4.35-6.42,0-3.33.87-6.48,4.32-6.48,2.46,0,3.21,1.38,3.51,2.46h6c-.39-3.18-3.24-6.75-9.48-6.75-6.9,0-10.59,4.62-10.59,10.98,0,5.73,3.21,10.5,9.54,10.5,2.85,0,4.86-.75,6.03-2.31A12.492,12.492,0,0,0,61.53,0h4.05ZM69.51,0H84.66l.66-4.5H75.6V-20.67H69.51ZM87.66-20.67V0h6.09V-20.67ZM110.7-6.81a3.273,3.273,0,0,1-3.36,2.94c-3.18,0-4.02-3.24-4.02-6.51,0-3.63,1.02-6.42,3.96-6.42a3.176,3.176,0,0,1,3.39,2.85h6c-.42-3.57-3.18-7.11-9.24-7.11-7.11,0-10.35,5.04-10.35,10.89,0,6,3.27,10.56,10.05,10.56,5.67,0,8.82-2.88,9.6-7.2ZM119.61,0h6.03V-6.42l1.8-1.86L132.42,0h7.08l-7.86-12.21,7.59-8.46h-7.17c-2.04,2.73-5.07,6.51-6.42,8.4v-8.4h-6.03Zm36.9-12.84h-9.42v-3.33h9.81v-4.5H141.27V0h15.66l.69-4.5H147.09V-8.37h9.42Zm-6.15-13.5-4.02,4.08h4.95l5.76-4.08ZM4.11,30V22.05c0-3.66-.03-6.99-.18-9.54h.03c.24.81.96,2.67,6.81,17.49h2.64V9.63h-2.1V17.4c0,3.33.03,6.39.18,9.12h-.03c-.27-.87-1.05-2.79-6.69-16.89H2.01V30Zm20.61-6.45L26.22,30h2.4L23.55,9.63H20.64L15.72,30h2.22l1.5-6.45Zm-4.86-2.01c1.02-4.38,1.83-8.04,2.13-9.81h.06c.27,1.62,1.05,4.8,2.22,9.81ZM24.18,4.5,20.79,8.07h2.28l3.9-3.57ZM30.81,30h5.16c3.51,0,5.73-2.31,5.73-5.97,0-3.15-1.62-4.56-3.18-5.1,1.2-.42,2.52-1.62,2.52-4.35a4.549,4.549,0,0,0-4.92-4.95H30.81ZM33,18.12V11.49h2.64c2.13,0,3.21,1.26,3.21,3.3,0,2.19-.93,3.33-3.51,3.33Zm0,1.83h2.31c2.76,0,4.14,1.35,4.14,4.08,0,2.67-1.29,4.14-3.69,4.14H33Zm16.29.66c2.76,0,3.33,1.41,3.33,4.29v.69a20.085,20.085,0,0,0,.3,4.41h2.25a21.308,21.308,0,0,1-.3-4.35v-.81c0-2.85-.6-4.53-2.49-5.19,1.26-.42,2.73-1.71,2.73-4.77,0-3.33-1.77-5.25-5.19-5.25H44.58V30h2.25V20.61Zm-2.46-9.09h2.82c2.25,0,3.18,1.38,3.18,3.42,0,2.37-.93,3.78-3.42,3.78H46.83Zm3.69-3.45,2.91-3.36H51.09l-1.8,2.13L47.46,4.71h-2.4l2.97,3.36ZM67.41,18.24H60.6V11.61h7.14V9.63H58.38V30h9.48l.3-1.98H60.6v-7.8h6.81ZM70.11,30H81.15l.3-1.98H72.72l8.52-16.59V9.63H70.8v1.98h7.98L70.11,28.35ZM77.28,8.1l2.91-3.36H77.85l-1.8,2.13L74.22,4.74h-2.4L74.79,8.1Zm6.48,1.53V30h2.25V9.63ZM87.12,4.5,83.73,8.07h2.28l3.9-3.57Z" transform="translate(60 56)" fill="#fff"/>
  </g>
</svg>