<?xml version="1.0" encoding="utf-8"?>
<!-- Generator: Adobe Illustrator 28.2.0, SVG Export Plug-In . SVG Version: 6.00 Build 0)  -->
<svg version="1.1" id="Vrstva_1" xmlns="http://www.w3.org/2000/svg" xmlns:xlink="http://www.w3.org/1999/xlink" x="0px" y="0px"
	 viewBox="0 0 92.1 73.5" style="enable-background:new 0 0 92.1 73.5;" xml:space="preserve">
<style type="text/css">
	.st0{fill:#B8A66B;}
	.st1{enable-background:new    ;}
	.st2{fill:#403D39;}
</style>
<g id="Group_3" transform="translate(33.785 20)">
	<path id="Path_1" class="st0" d="M35.4,17.1c-1-3-3.5-5.3-6.6-6.1c-0.3,0.6-0.6,1.2-0.9,1.7l1-0.7c0.5,0.1,1,0.3,1.4,0.6l-4.2,3.1
		l-0.8-0.1c-0.2,0.1-0.4,0.3-0.5,0.4l1.2,0.2l3.1,4.2c-0.5,0.1-1,0.1-1.5,0.1l-3.2-4.3c-0.1,0.1-0.3,0.2-0.4,0.2l2.9,4
		c-0.1,0-0.3,0-0.4-0.1c0,0-0.1,0-0.1,0c0.2,0.3,0.3,0.7,0.4,1c3.3,0.3,6.6-1.1,8.5-3.9l0.1-0.2L35.4,17.1z M33.1,14.9l-2.1,1.5
		l-1.8-0.3l3-2.2C32.6,14.2,32.9,14.5,33.1,14.9 M30.8,12.8c0.4,0.2,0.8,0.5,1.1,0.8L28.6,16l-1.8-0.3L30.8,12.8z M29.6,20.2l-3-4
		l1.8,0.3l2.5,3.3C30.5,20,30.1,20.1,29.6,20.2 M31.4,19.6l-2.2-3l1.8,0.3l1.5,2.1C32.2,19.2,31.8,19.4,31.4,19.6 M32.9,18.7
		L31.6,17l2.6,0.4C33.8,17.8,33.4,18.3,32.9,18.7 M31.7,16.5l1.7-1.2c0.4,0.5,0.6,1.1,0.9,1.6L31.7,16.5z"/>
	<path id="Path_2" class="st0" d="M16.3,26.5L16.3,26.5C16.3,26.5,16.3,26.5,16.3,26.5L14,25.2l-0.3-1c-0.1,0.1-0.1,0.3-0.2,0.4
		l0.2,0.7l-1.3,2.3c-0.2-0.2-0.4-0.4-0.6-0.7c-0.2,0.2-0.5,0.5-0.7,0.7c1,1.2,2.3,2.1,3.9,2.4l0.2,0l0.2-0.2
		c0.8-0.8,1.4-1.7,1.8-2.8C16.8,26.8,16.6,26.7,16.3,26.5 M12.6,27.8l1.2-2.1l0.3,1.2l-0.8,1.4C13.1,28.2,12.9,28,12.6,27.8
		 M13.6,28.5l0.6-1.1l0.4,1.5C14.3,28.8,14,28.7,13.6,28.5 M15,28.8l-0.4-1.5l1.1,0.6C15.5,28.2,15.3,28.5,15,28.8 M15.8,27.6
		l-1.4-0.8l-0.3-1.2l2.1,1.1C16.1,27.1,16,27.4,15.8,27.6"/>
	<path id="Path_3" class="st0" d="M13.8,24.1l0.4,0.2l0,0c-0.1-0.1-0.2-0.3-0.3-0.4C13.8,24,13.8,24,13.8,24.1"/>
	<path id="Path_4" class="st0" d="M23.7,16.8c-0.1,0-0.1-0.1-0.2-0.1c-0.3,0.2-0.6,0.3-1,0.5c0.2,0.1,0.3,0.2,0.5,0.4
		s0.3,0.3,0.5,0.4l-6.8,0.5L16.2,18c-0.4-0.1-0.7-0.1-1.1-0.2l1.3,1.1l0.5,6.8c-0.2-0.1-0.3-0.2-0.5-0.4c-0.4-0.4-0.8-0.8-1.2-1.2
		l-0.3-3.9c-0.1,0.7-0.2,1.3-0.4,1.9l0.1,1.1c-0.1-0.2-0.2-0.3-0.3-0.5c-0.1,0.4-0.3,0.7-0.5,1.1c2.8,4.2,8.2,5.9,13,4l0.2-0.1
		l0.1-0.2C28.1,23.6,26.8,19.5,23.7,16.8 M24.1,18.5c0.4,0.4,0.7,0.9,1,1.4L19,20.4L17.3,19L24.1,18.5z M17.4,26.1l-0.5-6.7l1.6,1.4
		l0.4,6.2C18.5,26.7,17.9,26.4,17.4,26.1 M19.6,27.1l-0.4-5.9l1.6,1.4l0.3,4.9C20.6,27.5,20.1,27.3,19.6,27.1 M19.5,20.9l5.9-0.4
		c0.2,0.5,0.5,1,0.6,1.5l-4.8,0.3L19.5,20.9z M21.7,27.6l-0.3-4.4l1.6,1.4l0.2,3.1C22.7,27.7,22.2,27.7,21.7,27.6 M21.7,22.8
		l4.4-0.3c0.1,0.5,0.2,1,0.3,1.5l-3.1,0.2L21.7,22.8z M23.7,27.6l-0.2-2.5l2.4,2.1C25.2,27.4,24.5,27.6,23.7,27.6 M26.3,26.7l-2.3-2
		l2.5-0.2C26.5,25.3,26.4,26,26.3,26.7"/>
	<path id="Path_5" class="st0" d="M39.6,25.9c-0.4-3.2-2.6-5.9-5.6-7c-0.2-0.1-0.4-0.1-0.7-0.2c-0.3,0.3-0.6,0.5-0.9,0.8
		c0.4,0.1,0.8,0.2,1.2,0.3c0.1,0,0.3,0.1,0.4,0.2l-4.8,2.2l-1.6-0.6l1.3-0.6c-0.4,0.1-0.9,0.1-1.3,0.1l-0.6,0.3l-0.3-0.1
		c0.1,0.2,0.2,0.4,0.2,0.7l2,4.2c-0.6-0.4-1.1-1-1.5-1.6c0,0.5,0,1,0,1.4c3.3,3.4,8.6,3.5,12.1,0.3l0.2-0.2L39.6,25.9z M37.9,23.5
		l-2.1,1l-1.6-0.6l3.1-1.4C37.5,22.8,37.7,23.2,37.9,23.5 M37,22.1l-3.4,1.6L32,23.1l4.1-1.9C36.5,21.5,36.8,21.8,37,22.1
		 M34.6,20.1c0.4,0.2,0.8,0.5,1.2,0.8l-4.3,2l-1.6-0.6L34.6,20.1z M31,27.2c-0.5-0.2-0.9-0.4-1.3-0.6L27.5,22l1.6,0.6l2.2,4.8
		C31.2,27.3,31.1,27.2,31,27.2 M31.9,27.5l-2.2-4.7l1.6,0.6l2,4.3C32.8,27.6,32.4,27.6,31.9,27.5 M33.8,27.7l-1.9-4.1l1.6,0.6
		l1.6,3.4C34.6,27.6,34.2,27.6,33.8,27.7 M35.5,27.4L34,24.3l1.6,0.6l1,2.1C36.3,27.2,35.9,27.3,35.5,27.4 M37,26.8l-0.8-1.7
		l2.2,0.8C38,26.3,37.5,26.6,37,26.8 M36.4,24.7l1.7-0.8c0.2,0.5,0.4,1.1,0.5,1.6L36.4,24.7z"/>
	<path id="Path_6" class="st0" d="M29.8,5.7l0-0.2l-0.2-0.1c-5.5-3.5-12.7-2-16.3,3.5c-0.5,0.7-0.8,1.5-1.1,2.3
		c0.3,0.3,0.5,0.6,0.7,0.9c0.5-1.7,1.4-3.2,2.7-4.4l-1.6,6.1c0.2,0.5,0.4,1,0.6,1.4l6.3,1.7c-1.9,0.5-4,0.5-5.9-0.1
		c0.1,0.3,0.1,0.7,0.1,1.1c6.3,1.7,12.7-2,14.4-8.3C29.7,8.2,29.9,6.9,29.8,5.7 M28.5,5.8l-3,1.7l0.7-2.7C27,5.1,27.8,5.4,28.5,5.8
		 M24,4.4c0.6,0,1.1,0.1,1.7,0.3L24.8,8l-2,1.2L24,4.4z M23.4,4.4L22,9.6l-2,1.2l1.7-6.3C22.2,4.4,22.8,4.4,23.4,4.4 M21,4.6
		l-1.8,6.6l-2,1.2l1.9-7.2C19.7,4.9,20.3,4.7,21,4.6 M16.3,6.8c0.4-0.4,0.9-0.7,1.4-1c0.2-0.1,0.4-0.2,0.7-0.4l-2,7.3l-2,1.2
		L16.3,6.8z M23.4,15.7c-0.5,0.3-1.1,0.6-1.6,0.8l-7.2-1.9l2-1.2l7.3,2C23.8,15.4,23.6,15.6,23.4,15.7 M24.7,14.9l-7.2-1.9l2-1.2
		l6.6,1.8C25.7,14,25.2,14.5,24.7,14.9 M26.5,13l-6.3-1.7l2-1.2l5.2,1.4C27.2,12.1,26.9,12.6,26.5,13 M27.8,11L23,9.7l2-1.2l3.3,0.9
		C28.2,10,28,10.5,27.8,11 M28.5,8.8l-2.8-0.7l3-1.8C28.8,7.2,28.7,8,28.5,8.8"/>
	<path id="Path_7" class="st0" d="M26.4-0.5l-0.1-0.2l-0.2-0.1c-0.7-0.2-1.3-0.3-2-0.3c-0.5,0-0.9,0.1-1.4,0.2c0,0.3,0,0.7-0.1,1
		c0.1,0,0.1,0,0.2,0v2.6l-0.9,0.9c0.2,0,0.3,0,0.5,0l0.6-0.6h2.6c-0.1,0.3-0.2,0.5-0.3,0.7c0.3,0.1,0.6,0.1,1,0.2
		C26.8,2.5,26.8,0.9,26.4-0.5 M24.2-0.2c0.4,0,0.7,0.1,1.1,0.2l-1.1,1.1V-0.2z M23-0.1c0.3-0.1,0.6-0.1,0.9-0.1v1.6L23,2.3V-0.1z
		 M25.6,2.6h-2.4l0.9-0.9h1.6C25.7,2,25.7,2.3,25.6,2.6 M24.4,1.4l1.1-1.1c0.1,0.4,0.1,0.7,0.2,1.1H24.4z"/>
	<path id="Path_8" class="st0" d="M21.5,3.4L21.5,3.4c0.1,0.1,0.2,0.1,0.3,0.1V2.7C21.7,3,21.6,3.2,21.5,3.4"/>
	<path id="Path_9" class="st0" d="M18.2-10.1L18-10.2l-0.2,0.1c-3.9,1.2-6.7,4.5-7.3,8.5c0,0.1,0,0.3-0.1,0.4
		C10.7-1,11-0.7,11.3-0.5c0-0.3,0-0.7,0.1-1c0-0.2,0.1-0.4,0.1-0.6l4,5.5l-0.3,2.1l-0.3-0.4c0.2,0.6,0.3,1.1,0.3,1.7
		c0.1-0.1,0.2-0.2,0.4-0.3l0,0l5.1-3.7c-0.3,0.6-0.6,1.2-1.1,1.7c0.5-0.2,1-0.3,1.5-0.5C24-0.7,22.7-6.8,18.2-10.1 M21.5-3.5
		l-4.8,3.4L17-2.2l4-2.9C21.2-4.6,21.3-4,21.5-3.5 M20.8-5.6L17.1-3l0.3-2.1L20-6.9C20.3-6.5,20.5-6,20.8-5.6 M18.1-8.9
		c0.6,0.5,1.1,1,1.6,1.6l-2.1,1.5L18.1-8.9z M17.6-9L17.1-6l-1.5-2C16.2-8.4,16.9-8.8,17.6-9 M15.2-7.7L17-5.2l-0.3,2.1L14-6.7
		C14.4-7,14.7-7.4,15.2-7.7 M13.6-6.3l2.8,3.9l-0.3,2.1L12.7-5C13-5.4,13.3-5.8,13.6-6.3 M11.7-2.8c0.2-0.6,0.4-1.1,0.7-1.7l3.6,5
		l-0.3,2.1L11.7-2.8z M21.6,0.2c-0.1,0.6-0.2,1.1-0.4,1.6l-5.4,3.9l0.3-2.1l5.5-4C21.6-0.2,21.6,0,21.6,0.2 M16.2,2.8l0.3-2.1l5-3.6
		c0.1,0.6,0.1,1.2,0.1,1.8L16.2,2.8z"/>
	<path id="Path_10" class="st0" d="M13.2,10c-2.4,0.9-5,1-7.4,0.1l7-1.3l0.8,0.6c0.1-0.2,0.2-0.3,0.3-0.5l-0.8-0.5l-1.3-7
		c1.6,1.9,2.5,4.4,2.6,6.9c0.3-0.3,0.6-0.7,0.9-1C14.7,0.9,9-3.9,2.6-3.3C0.9-3.2-0.6-2.7-2.1-1.9l-0.2,0.1l0,0.2
		C-3.2,4.9,1.4,10.8,7.8,11.6c1.6,0.2,3.3,0.1,4.8-0.4C12.8,10.8,13,10.4,13.2,10 M9.7-0.5c0.5,0.3,1,0.7,1.4,1.1l1.4,7.3l-1.9-1.3
		L9.1-0.9C9.3-0.8,9.5-0.7,9.7-0.5 M8.4-1.3l1.4,7.4l-2-1.3L6.6-2C7.2-1.8,7.8-1.6,8.4-1.3 M5.9-2.2l1.2,6.4L5.2,2.9l-1-5.3
		C4.8-2.4,5.4-2.3,5.9-2.2 M3.6-2.4l0.9,4.9L2.5,1.1L1.9-2.3C2.4-2.4,3-2.4,3.6-2.4 M1.3-2.2l0.5,2.8l-2.9-2C-0.3-1.7,0.5-2,1.3-2.2
		 M-1.4-0.9l2.9,2l-2.8,0.5C-1.4,0.8-1.5,0-1.4-0.9 M-1.2,2.2l3.4-0.6l1.9,1.3l-4.8,0.9C-0.9,3.3-1.1,2.8-1.2,2.2 M-0.5,4.4l5.3-1
		l1.9,1.3L0.4,5.9C0,5.4-0.2,4.9-0.5,4.4 M0.8,6.5l6.7-1.3l1.9,1.3L2.1,7.9C1.6,7.5,1.1,7,0.8,6.5 M3.3,8.9C3.1,8.7,2.9,8.6,2.7,8.4
		L10.1,7l2,1.3L4.8,9.7C4.3,9.5,3.8,9.2,3.3,8.9"/>
	<path id="Path_11" class="st0" d="M11.3,11.5c1.4,1.6,2.3,3.5,2.7,5.6l-4.3-5.4c-0.1,0-0.2,0-0.3,0c-0.2,0-0.4,0-0.6,0L3.4,16
		c0.7-1.8,1.9-3.4,3.4-4.5c-0.4-0.1-0.8-0.2-1.1-0.3c-4.9,4.3-5.4,11.7-1.1,16.6c0.7,0.8,1.5,1.5,2.3,2l0.2,0.1l0.2-0.1
		c6.1-2.3,9.2-9,6.9-15.1c-0.5-1.2-1.1-2.4-1.9-3.4C12,11.4,11.6,11.5,11.3,11.5 M2.7,18.7C2.8,18.1,2.9,17.6,3,17l5.8-4.6l-0.3,2.3
		l-5.9,4.7C2.6,19.2,2.7,19,2.7,18.7 M2.6,20.2l5.9-4.6l-0.3,2.3l-5.4,4.3C2.7,21.5,2.6,20.9,2.6,20.2 M3,22.8l5.1-4l-0.3,2.3
		l-4.2,3.4C3.4,24,3.2,23.4,3,22.8 M7,28.6c-0.7-0.5-1.3-1.1-1.8-1.7l2.2-1.8L7,28.6z M4.8,26.4C4.5,26,4.2,25.5,3.9,25L7.7,22
		l-0.3,2.3L4.8,26.4z M7.6,28.7L8,25.2l1.8,2.2C9.1,27.9,8.4,28.3,7.6,28.7 M10.2,27l-2.2-2.7L8.4,22l3.1,3.9
		C11.1,26.3,10.7,26.7,10.2,27 M11.8,25.4l-3.4-4.2l0.3-2.3l4.1,5.1C12.5,24.4,12.2,24.9,11.8,25.4 M13.1,23.3L8.8,18l0.3-2.3
		l4.7,5.9C13.6,22.1,13.4,22.7,13.1,23.3 M14,20c0,0.2-0.1,0.5-0.1,0.7l-4.7-5.9l0.3-2.3l4.6,5.8C14.1,18.8,14.1,19.4,14,20"/>
	<path id="Path_12" class="st0" d="M-4.7,8.3c0.4-0.2,0.9-0.5,1.3-0.6l0,0l1.9-0.9L-0.8,7C-0.5,7-0.3,7-0.1,6.9c0,0,0,0,0-0.1
		l-1.1-0.4l-1.1-2.4C-2.2,4-1.9,4-1.7,4C-1.8,3.7-1.9,3.4-2,3.1c-1.4,0.1-2.8,0.7-3.8,1.7L-6,5l0,0.2C-5.8,6.3-5.4,7.4-4.7,8.3
		 M-4,7.6c-0.2-0.2-0.3-0.5-0.5-0.8L-3,6.2l1.2,0.4L-4,7.6z M-2.7,4.2l1,2.2l-1.2-0.4l-0.7-1.4C-3.3,4.3-3,4.2-2.7,4.2 M-3.9,4.6
		l0.5,1.2l-1.5-0.5C-4.5,5-4.2,4.8-3.9,4.6 M-3.4,6l-1.1,0.5c-0.1-0.3-0.3-0.7-0.3-1.1L-3.4,6z"/>
	<path id="Path_13" class="st0" d="M16.8-13.3c-0.6-3.2-2.9-5.8-6-6.7L10.6-20l-0.2,0.1c-2.5,1.9-3.8,5.1-3.2,8.2
		c0.4,0.1,0.7,0.2,1.1,0.3c0-0.1-0.1-0.2-0.1-0.3c0-0.1,0-0.3-0.1-0.4l4.4,3l0.3,1.5C12.9-7.3,13-7,13.2-6.6c0,0,0.1-0.1,0.1-0.1
		l0-0.1l2.7-4c-0.1,0.9-0.4,1.8-0.8,2.6c0.4-0.3,0.9-0.5,1.3-0.7C17-10.3,17.1-11.8,16.8-13.3 M13.8-17.1l-1.9,2.8l-0.3-1.7l1.3-1.9
		C13.2-17.6,13.5-17.4,13.8-17.1 M12.5-18.1l-1.1,1.6L11-18.9C11.5-18.7,12-18.4,12.5-18.1 M10.6-18.8l0.4,2.3l-1.6-1.1
		C9.8-18,10.2-18.4,10.6-18.8 M9.2-17.2l1.9,1.3l0.3,1.7l-2.8-1.9C8.8-16.5,9-16.8,9.2-17.2 M8.5-15.7l3.1,2.1l0.3,1.7l-3.7-2.6
		C8.2-14.9,8.3-15.3,8.5-15.7 M8-12.6C8-13.1,8-13.5,8-14l3.9,2.7l0.3,1.7L8-12.6z M12.3-12L12-13.6l2.1-3.1c0.3,0.3,0.5,0.7,0.8,1
		L12.3-12z M12.4-11.4l2.7-3.9c0.2,0.4,0.4,0.9,0.6,1.3l-2.9,4.3L12.4-11.4z M13.1-7.4l-0.3-1.7l3-4.4c0,0.1,0.1,0.2,0.1,0.4
		c0.1,0.5,0.1,1,0.1,1.4L13.1-7.4z"/>
	<path id="Path_14" class="st0" d="M12.4-6c0,0.1,0,0.1,0.1,0.2c0.2-0.3,0.4-0.5,0.7-0.8c-1.5-3.1-4.5-5.1-7.9-5.3l-0.2,0l-0.2,0.2
		C3-9.4,2.3-6.3,3.2-3.4c0.5,0,1,0,1.4,0L4.1-3.5C4-4,3.9-4.5,3.8-5l4.9,1.9l0.5,1.2c0.3,0.2,0.7,0.4,1,0.6l0,0l2-5.1
		C12.3-6.3,12.4-6.2,12.4-6 M9.2-9.7L7.8-6.2L7.1-7.9L8-10.3C8.4-10.2,8.8-10,9.2-9.7 M7.6-10.5l-0.8,2l-1.1-2.4
		C6.4-10.8,7-10.7,7.6-10.5 M5.3-10.7l1.1,2.4l-2-0.7C4.6-9.7,5-10.2,5.3-10.7 M4.2-8.7l2.4,0.9l0.7,1.7L3.9-7.4
		C4-7.8,4.1-8.2,4.2-8.7 M3.8-5.5c0-0.5,0-0.9,0.1-1.4l3.8,1.5l0.8,1.7L3.8-5.5z M8.1-5.6l1.5-3.9c0.4,0.3,0.7,0.6,1.1,0.9L8.9-3.9
		L8.1-5.6z M9.9-1.6L9.1-3.3L11-8.2c0.3,0.4,0.7,0.8,0.9,1.2L9.9-1.6z"/>
	<path id="Path_15" class="st0" d="M2.7,16.5l-0.4,0.9c-0.5,0.3-0.9,0.5-1.5,0.7c-0.2,0.1-0.4,0.2-0.6,0.2L2.9,12l2-0.8l-1.1,2.7
		c0.4-0.6,0.8-1.2,1.3-1.7l0.5-1.1C5.3,11,5,10.9,4.7,10.7l-1.9,0.8l-6.3-2.7C-3.4,8.7-3.2,8.7-3,8.6c0.5-0.2,1.1-0.4,1.6-0.5
		l5.1,2.2C3,9.9,2.2,9.3,1.6,8.8l-2-0.8c0.4,0,0.7-0.1,1.1-0.1C0.4,7.6,0.1,7.3-0.1,6.9c-5.3,0.4-9.5,4.5-9.9,9.8l0,0.2l0.2,0.2
		c3,2.7,7.3,3.4,11.1,1.9c0.4-0.2,0.7-0.3,1.1-0.5C2.4,17.8,2.5,17.1,2.7,16.5 M-4.2,9.1L2,11.8l-2,0.8l-5.7-2.4
		C-5.2,9.8-4.7,9.4-4.2,9.1 M-6.1,10.6l5.4,2.3l-2,0.8l-4.5-1.9C-6.8,11.3-6.5,10.9-6.1,10.6 M-7.5,12.2l4.1,1.7l-2,0.8l-2.9-1.2
		C-8,13.1-7.8,12.6-7.5,12.2 M-8.4,14.1l2.3,1L-9,16.2C-8.9,15.5-8.7,14.8-8.4,14.1 M-8.8,16.7l2.9-1.2l-1,2.3
		C-7.6,17.6-8.2,17.2-8.8,16.7 M-6.4,18.1l1.2-2.8l2-0.8L-5,18.6C-5.5,18.5-5.9,18.3-6.4,18.1 M-4.4,18.7l1.9-4.5l2-0.8l-2.3,5.4
		C-3.4,18.8-3.9,18.8-4.4,18.7 M-2.2,18.8l2.4-5.7l2-0.8l-2.6,6.2C-1,18.7-1.6,18.7-2.2,18.8"/>
	<path id="Path_16" class="st0" d="M2.4,17.8C2.3,17.8,2.1,17.9,2,18l0.4-0.1C2.4,17.9,2.4,17.8,2.4,17.8"/>
	<path id="Path_17" class="st0" d="M3.1,25.3L2.9,24c-0.6-1.6-0.8-3.3-0.7-4.9l-0.2,0.2L-3.7,20c0.1-0.1,0.2-0.2,0.3-0.4
		c0.1-0.2,0.3-0.4,0.5-0.5c-0.4,0-0.8,0-1.2-0.1l0,0c-2.2,2.7-2.6,6.5-1.1,9.6l0.1,0.2l0.2,0c0.6,0.1,1.2,0.2,1.8,0.2
		c2.7,0,5.2-1.1,6.9-3.1c-0.2-0.3-0.3-0.6-0.5-0.9C3.3,25.1,3.2,25.2,3.1,25.3 M-4,20.5l5.7-0.7l-1.1,1.4l-5.2,0.6
		C-4.5,21.4-4.3,20.9-4,20.5 M-4.9,22.4l4.9-0.6L-1,23.2l-4.1,0.5C-5.1,23.3-5,22.8-4.9,22.4 M-5.2,24.2l3.7-0.4l-1.1,1.4l-2.6,0.3
		C-5.2,25.1-5.2,24.6-5.2,24.2 M-5.1,26l2.1-0.3l-1.6,2.1C-4.8,27.2-5,26.6-5.1,26 M-4.3,28.1l1.6-2l0.2,2.1
		C-3,28.2-3.6,28.1-4.3,28.1 M-1.9,28.1l-0.3-2.5l1.1-1.4l0.4,3.7C-1.1,27.9-1.5,28-1.9,28.1 M-0.2,27.6l-0.5-4.1l1.1-1.4L1,27
		C0.6,27.3,0.2,27.4-0.2,27.6 M1.5,26.7l-0.6-5.2L2,20.1l0.7,5.7C2.3,26.1,1.9,26.5,1.5,26.7"/>
	<path id="Path_18" class="st0" d="M-5.5,25.5C-5.8,25.8-6,26-6.3,26.3c-0.1,0.1-0.2,0.2-0.3,0.3l0.4-5.3l1.3-1.1L-5,21.8
		c0.2-0.6,0.3-1.1,0.6-1.7l0-0.3l0.2-0.2c0.1-0.2,0.1-0.3,0.1-0.3s0-0.1-0.2-0.2l-0.3,0.3L-9.5,19c0.8-0.3,1.6-0.5,2.5-0.6
		c-0.4-0.2-0.9-0.5-1.3-0.8c-4.6,1-7.6,5.6-6.6,10.2c0,0.1,0,0.1,0,0.2l0.1,0.2l0.2,0.1c3,1.3,6.4,0.7,8.9-1.4
		c0.1-0.1,0.2-0.2,0.3-0.2C-5.5,26.3-5.5,25.9-5.5,25.5 M-11.4,20.2c0.4-0.3,0.8-0.6,1.2-0.8l5.1,0.4l-1.3,1.1l-5.3-0.4
		C-11.6,20.4-11.5,20.3-11.4,20.2 M-12.1,20.9l5.2,0.4l-1.3,1.1L-13,22C-12.7,21.6-12.4,21.2-12.1,20.9 M-13.2,22.4l4.5,0.4
		l-1.3,1.1l-3.8-0.3C-13.6,23.2-13.4,22.8-13.2,22.4 M-14.1,25.6l1.9,0.2l-1.8,1.5C-14.1,26.8-14.1,26.2-14.1,25.6 M-12.1,28
		c-0.6-0.1-1.1-0.2-1.6-0.4l1.8-1.5L-12.1,28z M-14.1,25.2c0-0.4,0.1-0.8,0.2-1.2l3.4,0.3l-1.3,1.1L-14.1,25.2z M-10.5,28
		c-0.4,0-0.8,0-1.2,0l0.2-2.3l1.3-1.1L-10.5,28z M-8.8,27.7c-0.4,0.1-0.8,0.2-1.2,0.3l0.3-3.7l1.3-1.1L-8.8,27.7z M-7.1,26.9
		c-0.4,0.3-0.8,0.5-1.3,0.7l0.4-4.8l1.3-1.1L-7.1,26.9z"/>
</g>
<g id="Group_1489" transform="translate(-75 57)">
	<g class="st1">
		<path class="st2" d="M78.3,8.6V16H77V8.6h-2V7.3h5.3v1.2H78.3z"/>
		<path class="st2" d="M84.1,7.3c1.1,0,1.7,0.1,2.3,0.5c0.9,0.6,1,1.7,1,2c0,1.2-0.8,2.2-1.9,2.4l2.7,3.7h-1.6l-2.5-3.5h-0.2V16
			h-1.3V7.3H84.1z M83.8,11.3h0.4c0.4,0,1.8,0,1.8-1.4c0-1.2-1.2-1.3-1.8-1.3h-0.5V11.3z"/>
		<path class="st2" d="M91.8,7.3V16h-1.3V7.3H91.8z"/>
		<path class="st2" d="M100,13.9h-3.7L95.4,16H94l4.3-9.2l4.1,9.2h-1.4L100,13.9z M99.5,12.7l-1.3-2.9l-1.3,2.9H99.5z"/>
		<path class="st2" d="M104.5,16V6.7l6.3,6.6v-6h1.3v9.2l-6.3-6.6V16H104.5z"/>
		<path class="st2" d="M119.7,11.5h3.6v0.1c0,1.5-0.4,2.7-1.3,3.5c-0.9,0.9-2,1.1-3,1.1c-1.3,0-2.2-0.4-3-1.2
			c-0.8-0.9-1.3-2-1.3-3.3c0-1.4,0.5-2.5,1.3-3.2c0.7-0.8,1.9-1.3,3.3-1.3c0.8,0,1.6,0.2,2.3,0.5c0.7,0.4,1.2,0.9,1.4,1.3L122,9.8
			c-0.3-0.4-0.6-0.8-1.1-1c-0.5-0.3-1-0.4-1.5-0.4c-1.1,0-1.9,0.5-2.3,0.9c-0.6,0.6-0.9,1.5-0.9,2.4c0,0.9,0.3,1.7,0.9,2.4
			c0.6,0.6,1.3,0.9,2.2,0.9c0.8,0,1.4-0.2,1.9-0.8c0.5-0.5,0.7-1,0.7-1.5h-2.2V11.5z"/>
		<path class="st2" d="M127.3,7.3v7.4h2.5V16H126V7.3H127.3z"/>
		<path class="st2" d="M138.2,7.3c0.5,0,1.3,0.1,1.9,0.5c0.7,0.5,1.1,1.3,1.1,2.1c0,0.5-0.1,1.3-0.8,1.9c-0.7,0.6-1.5,0.7-2.1,0.7
			h-0.6V16h-1.3V7.3H138.2z M137.6,11.3h0.6c1.1,0,1.7-0.6,1.7-1.4c0-0.5-0.2-1.3-1.7-1.3h-0.6V11.3z"/>
		<path class="st2" d="M148.2,13.9h-3.7l-0.9,2.1h-1.4l4.3-9.2l4.1,9.2h-1.4L148.2,13.9z M147.7,12.7l-1.3-2.9l-1.3,2.9H147.7z"/>
		<path class="st2" d="M154.2,7.3c1.1,0,1.7,0.1,2.3,0.5c0.9,0.6,1,1.7,1,2c0,1.2-0.8,2.2-1.9,2.4l2.7,3.7h-1.6l-2.5-3.5H154V16
			h-1.3V7.3H154.2z M154,11.3h0.4c0.4,0,1.8,0,1.8-1.4c0-1.2-1.2-1.3-1.8-1.3H154V11.3z"/>
		<path class="st2" d="M162,10.8l3.4-3.5h1.7l-3.9,3.9l3.9,4.7h-1.8l-3.1-3.8l-0.3,0.3V16h-1.3V7.3h1.3V10.8z"/>
	</g>
</g>
</svg>
