<?xml version="1.0" encoding="utf-8"?>
<!-- Generator: Adobe Illustrator 28.2.0, SVG Export Plug-In . SVG Version: 6.00 Build 0)  -->
<svg version="1.1" id="Layer_2_00000181080391183645242400000006916450731685174932_"
	 xmlns="http://www.w3.org/2000/svg" xmlns:xlink="http://www.w3.org/1999/xlink" x="0px" y="0px" viewBox="0 0 225.5 92"
	 style="enable-background:new 0 0 225.5 92;" xml:space="preserve">
<style type="text/css">
	.st0{fill:#FFFFFF;}
	.st1{enable-background:new    ;}
</style>
<g id="Layer_1-2">
	<path class="st0" d="M175.9,25.5l-4.5-11.2l-4.6,11.2H175.9z M170.8,12.4h1.3l8.8,21.4h-1.6l-2.9-7h-9.9l-2.9,7.1h-1.6L170.8,12.4
		L170.8,12.4z"/>
	<path class="st0" d="M223.3,12.5l-12.1,13v-13h-1.5v21.4h1.5v-6.6l4.2-4.5l8.3,11.1h1.7l-9.1-12l8.6-9.4L223.3,12.5L223.3,12.5z"/>
	<path class="st0" d="M141.7,24.4h7.2c0.6,0,1.3-0.1,1.9-0.5c0.5-0.3,1-0.7,1.4-1.2c0.4-0.5,0.7-1.1,0.9-1.7c0.2-0.6,0.3-1.3,0.3-2
		c0-0.7-0.1-1.4-0.4-2c-0.2-0.6-0.6-1.2-1-1.7c-0.4-0.5-0.9-0.9-1.5-1.1c-0.6-0.3-1.2-0.4-1.8-0.4h-7V24.4z M140.2,33.9V12.5h8.5
		c0.8,0,1.7,0.2,2.4,0.6c0.7,0.4,1.4,0.9,1.9,1.5c0.5,0.6,1,1.4,1.3,2.1c0.3,0.8,0.4,1.6,0.4,2.4c0,0.9-0.1,1.7-0.4,2.5
		c-0.3,0.8-0.7,1.5-1.2,2.1c-0.5,0.6-1.1,1.1-1.9,1.5c-0.7,0.4-1.6,0.6-2.4,0.6h-7.2v8.1L140.2,33.9L140.2,33.9z"/>
	<path class="st0" d="M189.2,24.4h7.3c0.6,0,1.3-0.1,1.8-0.5c0.5-0.3,1-0.7,1.4-1.2c0.4-0.5,0.7-1.1,0.9-1.7c0.2-0.6,0.3-1.3,0.3-2
		c0-0.7-0.1-1.4-0.4-2c-0.2-0.6-0.6-1.2-1-1.7c-0.4-0.5-0.9-0.9-1.5-1.2c-0.6-0.3-1.2-0.4-1.8-0.4h-7.1L189.2,24.4L189.2,24.4z
		 M187.7,33.9V12.5h8.6c0.8,0,1.7,0.2,2.4,0.6c0.7,0.4,1.4,0.9,1.9,1.5c0.5,0.6,1,1.4,1.3,2.1c0.3,0.8,0.4,1.6,0.5,2.4
		c0,0.8-0.1,1.5-0.4,2.3c-0.2,0.7-0.6,1.4-1,2c-0.4,0.6-0.9,1.1-1.6,1.5c-0.6,0.4-1.3,0.6-2,0.8l5.2,8.3h-1.7l-5-8.1h-6.7v8.1H187.7
		L187.7,33.9z"/>
	<path class="st0" d="M21.4,12.2h-5.7v21.4h5.7V12.2z"/>
	<path class="st0" d="M100.9,23.3v10.5h-5.7V12.4h4.4l8.3,10.9V12.4h5.7v21.4h-4.5C109.1,33.8,100.9,23.3,100.9,23.3z"/>
	<path class="st0" d="M128.8,46H0.5V0h128.3V46z M4,42.4h121.3V3.6H4V42.4z"/>
	<path class="st0" d="M32.4,22.8c0-1.3,0.2-2.6,0.7-3.9c0.5-1.3,1.2-2.4,2.1-3.4c1-1,2.1-1.9,3.3-2.4c1.5-0.7,3.2-1,4.9-0.9
		c1.7,0.1,3.3,0.5,4.8,1.3c1.4,0.8,2.5,2,3.3,3.4l-4.3,3.2c-0.2-0.5-0.4-0.9-0.8-1.3c-0.3-0.3-0.7-0.6-1.1-0.8
		c-0.4-0.2-0.8-0.3-1.2-0.4c-0.4-0.1-0.8-0.1-1.2-0.1c-0.7,0-1.4,0.1-2,0.4c-0.6,0.3-1.2,0.8-1.6,1.4c-0.4,0.5-0.7,1.2-0.8,1.8
		s-0.3,1.3-0.3,2c0,0.7,0.1,1.5,0.3,2.1c0.2,0.7,0.5,1.3,0.9,1.8c0.4,0.5,0.9,1,1.5,1.2c0.6,0.3,1.3,0.5,2,0.5c0.4,0,0.8,0,1.2-0.1
		c0.4-0.1,0.8-0.2,1.2-0.5c0.4-0.2,0.7-0.5,1-0.8c0.3-0.4,0.6-0.8,0.7-1.2l4.7,2.9c-0.3,0.8-0.8,1.5-1.4,2.1
		c-0.6,0.6-1.4,1.2-2.2,1.6c-0.8,0.4-1.7,0.8-2.6,1c-0.9,0.2-1.8,0.3-2.7,0.3c-1.5,0-2.9-0.3-4.2-1c-1.2-0.6-2.4-1.5-3.3-2.5
		c-0.9-1-1.7-2.2-2.2-3.6C32.7,25.5,32.4,24.1,32.4,22.8"/>
	<path class="st0" d="M68.6,23c0,0.7,0.1,1.4,0.3,2.1c0.2,0.6,0.5,1.3,0.9,1.8c0.4,0.5,0.9,1,1.5,1.3c0.7,0.3,1.4,0.5,2.1,0.5
		s1.5-0.2,2.1-0.5c0.6-0.3,1.1-0.8,1.5-1.3c0.4-0.5,0.7-1.2,0.8-1.8c0.2-0.7,0.3-1.4,0.3-2.1c0-0.7-0.1-1.4-0.3-2.1
		c-0.2-0.6-0.5-1.2-0.9-1.8c-0.7-0.8-1.6-1.4-2.7-1.6c-1-0.2-2.1-0.1-3.1,0.4c-0.6,0.3-1.1,0.8-1.5,1.3c-0.4,0.5-0.7,1.2-0.9,1.8
		C68.7,21.6,68.6,22.3,68.6,23L68.6,23L68.6,23z M73.3,33.9c-1.5,0-2.9-0.3-4.3-0.9c-1.2-0.6-2.4-1.4-3.3-2.5
		c-0.9-1-1.6-2.2-2.1-3.5c-0.5-1.3-0.8-2.7-0.8-4c0-1.4,0.3-2.8,0.8-4.1c0.5-1.3,1.3-2.5,2.2-3.4c1-1,2.1-1.8,3.4-2.4
		c1.3-0.6,2.8-0.9,4.2-0.9c1.5,0,2.9,0.3,4.3,0.9c1.2,0.6,2.4,1.4,3.3,2.5c0.9,1,1.6,2.2,2.1,3.5c0.5,1.3,0.7,2.6,0.8,4
		c0,1.4-0.3,2.8-0.8,4.1c-1,2.6-3,4.7-5.5,5.8C76.2,33.6,74.8,33.9,73.3,33.9"/>
	<g>
		<path class="st0" d="M115.7,87.3c-2.2,0-4-0.4-5.1-0.9V72.6c1.1-0.5,2.8-0.8,4.9-0.8c4.2,0,6.1,1.7,6.1,3.9c0,2.1-1.7,3.1-3.2,3.4
			v0c1.6,0.3,3.8,1.6,3.8,3.8C122.2,85.9,119.6,87.3,115.7,87.3 M115.5,73.2c-0.7,0-1.4,0.1-2.1,0.3v4.9c0.3,0,0.8,0,1.2,0
			c3.2,0,4.3-0.9,4.3-2.7S117.7,73.2,115.5,73.2 M114.6,79.8c-0.4,0-0.9,0-1.2,0v5.5c0.7,0.2,1.5,0.4,2.2,0.4c2.2,0,3.7-0.8,3.7-2.8
			S118,79.8,114.6,79.8"/>
		<polygon class="st0" points="133.8,87 133.8,80.2 127.6,80.2 127.6,87 124.7,87 124.7,72 127.6,72 127.6,78.5 133.8,78.5 
			133.8,72 136.6,72 136.6,87 		"/>
		<path class="st0" d="M154.3,87c0-0.3-1.3-10.3-1.3-10.3c-0.1-0.6-0.1-1.2-0.1-1.8h0c-0.1,0.6-0.3,1.2-0.5,1.8
			c0,0-3.5,9.9-3.7,10.3h-1.6c-0.1-0.4-3.7-10.3-3.7-10.3c-0.2-0.6-0.4-1.2-0.5-1.8l0,0c0,0.6,0,1.2-0.1,1.8c0,0-1.3,10-1.3,10.3
			h-2.4l2.1-15h2.9l3.4,10c0.2,0.6,0.4,1.1,0.5,1.7h0c0.1-0.6,0.3-1.2,0.5-1.7l3.6-10h2.9l2.1,15L154.3,87L154.3,87z"/>
		<path class="st0" d="M163.5,92c-1.4,0-2.8-0.2-4.1-0.8l0.4-0.8c1.1,0.4,2.4,0.7,3.6,0.7c2.8,0,4-1.5,4-3.5v-0.9
			c-0.7,0.3-1.9,0.6-3.2,0.6c-3.4,0-5.4-2.3-5.4-5.9s2-6.3,5.9-6.3c1.6,0,3,0.4,3.7,0.8v11.6C168.5,90.2,166.7,92,163.5,92
			 M167.4,76.3c-0.8-0.4-1.7-0.6-2.6-0.5c-3.2,0-4.8,2.4-4.8,5.6c0,3.2,1.6,5.2,4.6,5.2c1,0,1.9-0.2,2.8-0.6
			C167.4,86,167.4,76.3,167.4,76.3z"/>
		<path class="st0" d="M176.7,76c-1.2-0.3-3.1-0.2-4,0.3V87h-1.2V75.8c1.4-0.5,2.6-0.8,4.9-0.8c0.2,0,0.5,0,0.7,0L176.7,76L176.7,76
			z"/>
		<path class="st0" d="M182.9,87.3c-3.7,0-5.2-2.7-5.2-6.1s1.5-6.2,5.2-6.2s5.2,2.8,5.2,6.2S186.6,87.3,182.9,87.3 M182.9,75.8
			c-3.1,0-4,2.9-4,5.4s1,5.3,4,5.3s4-2.7,4-5.3S186,75.8,182.9,75.8"/>
		<path class="st0" d="M195.1,87.3c-3.2,0-4.5-1.7-4.5-3.8v-8.2h1.2v8.2c0,1.7,1.2,3,3.5,3c1.3,0,2.5-0.2,3.1-0.6V75.3h1.2v11.2
			C198.9,86.9,197.2,87.3,195.1,87.3"/>
		<path class="st0" d="M206.2,87.3c-0.8,0-1.6-0.1-2.4-0.3v4.8h-1.2V75.8c1.2-0.6,2.5-0.8,3.8-0.8c3.9,0,5.8,2.4,5.8,5.9
			C212.3,84.9,209.9,87.3,206.2,87.3 M206.4,75.7c-0.9,0-1.8,0.2-2.6,0.5v10c0.7,0.2,1.5,0.3,2.2,0.3c3.2,0,5.1-2.1,5.1-5.5
			S209.8,75.7,206.4,75.7"/>
	</g>
	<g class="st1">
		<path class="st0" d="M8.1,84.6c-0.1-0.3-0.3-0.7-0.5-1.2c-0.2-0.5-0.5-1-0.7-1.6S6.3,80.5,6,79.9c-0.3-0.6-0.6-1.2-0.8-1.8
			c-0.3-0.5-0.5-1-0.7-1.5c-0.2-0.4-0.4-0.8-0.5-1c-0.1,1.6-0.3,3.3-0.4,5.2s-0.2,3.8-0.2,5.7H1.4c0.1-1.2,0.1-2.5,0.2-3.7
			s0.1-2.5,0.2-3.7s0.2-2.4,0.3-3.5c0.1-1.1,0.2-2.2,0.3-3.2h1.7c0.4,0.6,0.8,1.3,1.2,2.1c0.4,0.8,0.8,1.7,1.3,2.6
			C7,78,7.4,78.9,7.8,79.8c0.4,0.9,0.8,1.7,1.1,2.4c0.3-0.7,0.7-1.5,1.1-2.4s0.8-1.8,1.2-2.7c0.4-0.9,0.8-1.7,1.3-2.6
			c0.4-0.8,0.8-1.5,1.2-2.1h1.7c0.5,4.6,0.8,9.3,1,14.1h-1.9c-0.1-1.9-0.1-3.8-0.2-5.7s-0.2-3.6-0.4-5.2c-0.1,0.2-0.3,0.6-0.5,1
			c-0.2,0.4-0.5,0.9-0.7,1.5c-0.3,0.6-0.5,1.1-0.8,1.8c-0.3,0.6-0.6,1.2-0.8,1.8c-0.3,0.6-0.5,1.1-0.7,1.6c-0.2,0.5-0.4,0.9-0.5,1.2
			H8.1z"/>
		<path class="st0" d="M18.8,81.3c0-0.9,0.1-1.8,0.4-2.5c0.3-0.7,0.6-1.3,1.1-1.7c0.4-0.5,1-0.8,1.5-1c0.6-0.2,1.2-0.3,1.8-0.3
			c1.4,0,2.5,0.4,3.3,1.3s1.1,2.2,1.1,4.1c0,0.1,0,0.2,0,0.3c0,0.1,0,0.2,0,0.4h-7.3c0.1,1.1,0.4,1.9,1,2.5c0.6,0.6,1.4,0.9,2.6,0.9
			c0.7,0,1.2-0.1,1.7-0.2c0.5-0.1,0.8-0.2,1-0.3l0.3,1.6c-0.2,0.1-0.6,0.3-1.2,0.4c-0.6,0.1-1.2,0.2-2,0.2c-0.9,0-1.7-0.1-2.4-0.4
			c-0.7-0.3-1.2-0.7-1.7-1.2c-0.4-0.5-0.8-1.1-1-1.7C18.9,82.8,18.8,82.1,18.8,81.3z M26.1,80.2c0-0.9-0.2-1.6-0.6-2.1
			c-0.4-0.6-1-0.8-1.8-0.8c-0.4,0-0.8,0.1-1.2,0.3c-0.3,0.2-0.6,0.4-0.8,0.7c-0.2,0.3-0.4,0.6-0.5,0.9c-0.1,0.4-0.2,0.7-0.3,1.1
			H26.1z"/>
		<path class="st0" d="M30.8,76.2c0.4-0.1,1-0.2,1.7-0.3c0.7-0.1,1.5-0.2,2.5-0.2c0.7,0,1.2,0.1,1.7,0.3s0.8,0.5,1.2,0.8
			c0.1-0.1,0.2-0.2,0.4-0.3c0.2-0.1,0.5-0.2,0.8-0.4c0.3-0.1,0.6-0.2,1-0.3c0.4-0.1,0.8-0.1,1.2-0.1c0.8,0,1.5,0.1,2,0.4
			c0.5,0.2,0.9,0.6,1.2,1c0.3,0.4,0.5,1,0.6,1.5s0.2,1.2,0.2,2v6h-1.9V81c0-0.6,0-1.2-0.1-1.6c-0.1-0.4-0.2-0.8-0.3-1.1
			s-0.4-0.5-0.7-0.7c-0.3-0.1-0.7-0.2-1.1-0.2c-0.6,0-1.2,0.1-1.6,0.3c-0.4,0.2-0.7,0.3-0.8,0.5c0.1,0.4,0.2,0.7,0.2,1.2
			s0.1,0.9,0.1,1.3v6H37V81c0-0.6,0-1.2-0.1-1.6c-0.1-0.4-0.2-0.8-0.4-1.1c-0.2-0.3-0.4-0.5-0.7-0.7c-0.3-0.1-0.7-0.2-1.1-0.2
			c-0.2,0-0.4,0-0.6,0c-0.2,0-0.4,0-0.6,0.1c-0.2,0-0.4,0-0.5,0.1c-0.2,0-0.3,0-0.3,0.1v8.9h-1.9V76.2z"/>
		<path class="st0" d="M50.2,76.4c0.2-0.1,0.6-0.3,1-0.5s1-0.2,1.6-0.2c0.8,0,1.4,0.1,2,0.4c0.6,0.3,1.1,0.7,1.5,1.1
			s0.7,1.1,0.9,1.8c0.2,0.7,0.3,1.4,0.3,2.2c0,0.9-0.1,1.6-0.4,2.3c-0.3,0.7-0.6,1.3-1.1,1.7c-0.5,0.5-1,0.8-1.7,1.1
			c-0.7,0.3-1.4,0.4-2.2,0.4c-0.9,0-1.7-0.1-2.3-0.2c-0.7-0.1-1.2-0.2-1.7-0.4V71.1l1.9-0.3V76.4z M50.2,84.9
			c0.2,0.1,0.5,0.1,0.8,0.2c0.3,0,0.8,0.1,1.3,0.1c1,0,1.8-0.3,2.4-1s0.9-1.6,0.9-2.9c0-0.5-0.1-1.1-0.2-1.5
			c-0.1-0.5-0.3-0.9-0.5-1.2c-0.2-0.3-0.6-0.6-0.9-0.8c-0.4-0.2-0.9-0.3-1.4-0.3c-0.5,0-1,0.1-1.4,0.3c-0.4,0.2-0.8,0.4-1,0.6V84.9z
			"/>
		<path class="st0" d="M59.7,81.3c0-0.9,0.1-1.8,0.4-2.5c0.3-0.7,0.6-1.3,1.1-1.7c0.4-0.5,1-0.8,1.5-1c0.6-0.2,1.2-0.3,1.8-0.3
			c1.4,0,2.5,0.4,3.3,1.3s1.1,2.2,1.1,4.1c0,0.1,0,0.2,0,0.3c0,0.1,0,0.2,0,0.4h-7.3c0.1,1.1,0.4,1.9,1,2.5c0.6,0.6,1.4,0.9,2.6,0.9
			c0.7,0,1.2-0.1,1.7-0.2c0.5-0.1,0.8-0.2,1-0.3l0.3,1.6c-0.2,0.1-0.6,0.3-1.2,0.4c-0.6,0.1-1.2,0.2-2,0.2c-0.9,0-1.7-0.1-2.4-0.4
			c-0.7-0.3-1.2-0.7-1.7-1.2c-0.4-0.5-0.8-1.1-1-1.7C59.8,82.8,59.7,82.1,59.7,81.3z M67,80.2c0-0.9-0.2-1.6-0.6-2.1
			c-0.4-0.6-1-0.8-1.8-0.8c-0.4,0-0.8,0.1-1.2,0.3c-0.3,0.2-0.6,0.4-0.8,0.7c-0.2,0.3-0.4,0.6-0.5,0.9c-0.1,0.4-0.2,0.7-0.3,1.1H67z
			"/>
		<path class="st0" d="M75.6,75.7c0.2,0,0.3,0,0.6,0c0.2,0,0.4,0,0.6,0.1c0.2,0,0.4,0.1,0.6,0.1s0.3,0.1,0.4,0.1l-0.3,1.7
			c-0.1-0.1-0.4-0.1-0.7-0.2c-0.3-0.1-0.8-0.1-1.3-0.1c-0.4,0-0.7,0-1,0.1c-0.3,0.1-0.6,0.1-0.7,0.2v8.9h-1.9V76.4
			c0.4-0.2,1-0.3,1.7-0.5C74.1,75.8,74.8,75.7,75.6,75.7z"/>
		<path class="st0" d="M93.6,81.2c0,0.8-0.1,1.6-0.4,2.3c-0.2,0.7-0.6,1.3-1,1.8c-0.4,0.5-1,0.9-1.6,1.1c-0.6,0.3-1.3,0.4-2,0.4
			c-0.7,0-1.4-0.1-2-0.4c-0.6-0.3-1.1-0.6-1.6-1.1c-0.4-0.5-0.8-1.1-1-1.8c-0.2-0.7-0.4-1.4-0.4-2.3c0-0.8,0.1-1.6,0.4-2.3
			c0.2-0.7,0.6-1.3,1-1.8c0.4-0.5,1-0.9,1.6-1.1c0.6-0.3,1.3-0.4,2-0.4c0.7,0,1.4,0.1,2,0.4c0.6,0.3,1.1,0.6,1.6,1.1
			c0.4,0.5,0.8,1.1,1,1.8C93.5,79.7,93.6,80.4,93.6,81.2z M91.7,81.2c0-1.2-0.3-2.1-0.8-2.8c-0.5-0.7-1.3-1-2.2-1
			c-0.9,0-1.7,0.3-2.2,1c-0.5,0.7-0.8,1.6-0.8,2.8s0.3,2.1,0.8,2.8c0.5,0.7,1.3,1,2.2,1c0.9,0,1.7-0.3,2.2-1
			C91.4,83.4,91.7,82.4,91.7,81.2z"/>
		<path class="st0" d="M100.5,70.7c0.6,0,1,0,1.4,0.1c0.4,0.1,0.7,0.2,0.8,0.2l-0.3,1.6c-0.2-0.1-0.4-0.2-0.7-0.2
			c-0.3-0.1-0.7-0.1-1.1-0.1c-0.9,0-1.5,0.2-1.9,0.7c-0.4,0.5-0.5,1.1-0.5,1.9v0.9h4.1v1.6h-4.1v9h-1.9V75c0-1.4,0.3-2.4,1-3.1
			S99,70.7,100.5,70.7z"/>
	</g>
</g>
</svg>
